<svg version="1.1" xmlns="http://www.w3.org/2000/svg" viewBox="0 0 512 512"><path fill="#88DD00" d="M256,0C114.6,0,0,114.6,0,256s114.6,256,256,256s256-114.6,256-256S397.4,0,256,0zM182.3,353.6c-2.6,2.5-5.9,3.7-9.2,3.7c-3.6,0-7.1-1.4-9.8-4.2l-82.9-87.8c-4.9-5.2-4.9-13.3,0-18.5l82.9-87.8c5.1-5.4,13.6-5.6,19-0.6c5.4,5.1,5.6,13.6,0.6,19L108.7,256l74.2,78.6C188,340,187.7,348.5,182.3,353.6zM289,129l-39.4,258c-1,6.6-6.7,11.4-13.3,11.4c-0.7,0-1.4,0-2-0.2c-7.3-1.1-12.4-8-11.3-15.3l39.4-258c1.1-7.3,8-12.4,15.3-11.3C285.1,114.8,290.1,121.7,289,129zM431.5,265.2L348.7,353c-2.5,2.7-6.1,4.2-9.8,4.2c-3.4,0-6.7-1.3-9.2-3.7c-5.4-5.1-5.6-13.6-0.5-19l74.2-78.6l-74.2-78.6c-5.1-5.4-4.8-13.9,0.5-19c5.4-5.1,13.9-4.9,19,0.6l82.9,87.8v0C436.4,252,436.4,260.1,431.5,265.2z"/></svg>
