<svg version="1.1" xmlns="http://www.w3.org/2000/svg" viewBox="0 0 512 512"><circle fill="#88DD00" cx="256" cy="256" r="256"/><path fill="#FFFFFF" d="M108.7,256l74.2-78.6c5.1-5.4,4.8-13.9-0.6-19c-5.4-5.1-13.9-4.8-19,0.6l-82.9,87.8c-4.9,5.2-4.9,13.3,0,18.5l82.9,87.8c2.6,2.8,6.2,4.2,9.8,4.2c3.3,0,6.6-1.2,9.2-3.7c5.4-5.1,5.6-13.6,0.6-19L108.7,256zM431.5,246.8L431.5,246.8L348.7,159c-5.1-5.4-13.6-5.6-19-0.6c-5.4,5.1-5.6,13.6-0.5,19l74.2,78.6l-74.2,78.6c-5.1,5.4-4.8,13.9,0.5,19c2.5,2.4,5.8,3.7,9.2,3.7c3.7,0,7.2-1.5,9.8-4.2l82.9-87.8C436.4,260.1,436.4,252,431.5,246.8zM277.7,113.7c-7.3-1.1-14.2,3.9-15.3,11.3L223,383c-1.1,7.3,3.9,14.2,11.3,15.3c0.7,0.1,1.4,0.2,2,0.2c6.5,0,12.3-4.8,13.3-11.4L289,129C290.1,121.7,285.1,114.8,277.7,113.7z"/></svg>
